<svg width="140" height="42" viewBox="0 0 140 42" fill="none" xmlns="http://www.w3.org/2000/svg">
<path d="M105.234 40.243L116.156 28.1469L116.458 27.8118L116.156 27.4767L105.234 15.3788H116.209L121.843 21.4994L122.218 21.9067L122.585 21.4924L128.004 15.3788H138.544L127.677 27.4234L127.374 27.7593L127.678 28.0943L138.699 40.243H127.68L122.099 34.0739L121.726 33.6622L121.356 34.0757L115.829 40.243H105.234Z" fill="#FF6600" stroke="black"/>
<path d="M90.886 32.1368H103.609V40.243H81.667V0.5H103.609V8.581H90.886H90.386V9.081V14.8788V15.3788H90.886H103.609V23.1166H90.886H90.386V23.6166V31.6368V32.1368H90.886Z" fill="#FF6600" stroke="black"/>
<path d="M63.5649 41.7214C57.6422 41.7214 53.0459 37.7496 51.2663 32.581L51.3533 32.3704H51.1955C50.9015 31.4727 50.6921 30.5404 50.5749 29.5879L50.5208 29.149H50.0786H30.9205H30.4205V29.649C30.4205 32.9303 33.1855 35.6942 36.4146 35.6942C37.7127 35.6942 38.6829 35.5605 39.5052 35.1519C40.2684 34.7727 40.8529 34.1823 41.4524 33.3704H49.8424C48.6607 35.941 47.037 37.9302 44.9605 39.3079C42.7014 40.8068 39.8704 41.6056 36.4146 41.6056C28.2584 41.6056 21.9218 35.8405 21.9218 27.6432C21.9218 26.2628 22.0909 24.958 22.4062 23.7421L22.5684 23.1166H21.9222H10.979H10.479V23.6166V40.2436H0.5V0.5H23.9197V8.5822H10.979H10.479V9.0822V14.8794V15.3794H10.979H22.7954V20.2188V22.1012L23.7295 20.4669C26.0836 16.3482 30.6093 13.7864 36.4146 13.7864C39.9952 13.7864 42.9599 14.714 45.2559 16.3711C47.5514 18.0278 49.2095 20.4361 50.1408 23.451L50.6267 25.0241L51.0976 23.4464C52.7257 17.9915 57.3444 13.9028 63.4565 13.9028C66.4608 13.9028 68.9842 14.7125 71.0075 17.0049L71.1568 17.174H71.3824H71.4889H71.9889V16.674V0.5H80.6671V40.2424H71.9889V38.1048V37.6048H71.4889H71.3824H71.1186L70.9697 37.8225C69.2946 40.2716 66.5578 41.7214 63.5649 41.7214ZM30.7394 23.6236L30.5944 24.2384H31.2261V23.7384C31.2261 24.2384 31.2261 24.2384 31.2262 24.2384H31.2266H31.2272H31.228H31.2291H31.2304H31.232H31.2338H31.2358H31.2381H31.2406H31.2433H31.2463H31.2495H31.2529H31.2566H31.2605H31.2646H31.269H31.2735H31.2783H31.2833H31.2886H31.294H31.2997H31.3056H31.3117H31.3181H31.3246H31.3314H31.3384H31.3455H31.353H31.3606H31.3684H31.3764H31.3847H31.3932H31.4018H31.4107H31.4198H31.4291H31.4385H31.4482H31.4581H31.4682H31.4785H31.489H31.4997H31.5105H31.5216H31.5329H31.5443H31.556H31.5678H31.5799H31.5921H31.6045H31.6171H31.6299H31.6429H31.6561H31.6694H31.6829H31.6966H31.7105H31.7246H31.7389H31.7533H31.7679H31.7827H31.7976H31.8128H31.8281H31.8436H31.8592H31.875H31.891H31.9072H31.9235H31.94H31.9567H31.9735H31.9905H32.0076H32.0249H32.0424H32.06H32.0778H32.0958H32.1139H32.1322H32.1506H32.1692H32.1879H32.2068H32.2258H32.245H32.2643H32.2838H32.3034H32.3232H32.3431H32.3632H32.3834H32.4037H32.4242H32.4448H32.4656H32.4865H32.5076H32.5287H32.5501H32.5715H32.5931H32.6148H32.6367H32.6587H32.6808H32.703H32.7254H32.7479H32.7705H32.7933H32.8162H32.8392H32.8623H32.8855H32.9089H32.9324H32.956H32.9797H33.0035H33.0275H33.0516H33.0757H33.1H33.1244H33.149H33.1736H33.1983H33.2232H33.2481H33.2732H33.2983H33.3236H33.349H33.3744H33.4H33.4257H33.4515H33.4773H33.5033H33.5294H33.5555H33.5818H33.6081H33.6346H33.6611H33.6877H33.7145H33.7413H33.7682H33.7951H33.8222H33.8493H33.8766H33.9039H33.9313H33.9588H33.9863H34.014H34.0417H34.0695H34.0974H34.1253H34.1533H34.1814H34.2096H34.2378H34.2661H34.2945H34.323H34.3515H34.3801H34.4087H34.4374H34.4662H34.495H34.5239H34.5529H34.5819H34.611H34.6402H34.6693H34.6986H34.7279H34.7573H34.7867H34.8162H34.8457H34.8752H34.9049H34.9345H34.9642H34.994H35.0238H35.0537H35.0836H35.1135H35.1435H35.1735H35.2036H35.2337H35.2638H35.294H35.3242H35.3544H35.3847H35.415H35.4454H35.4757H35.5061H35.5366H35.567H35.5975H35.6281H35.6586H35.6892H35.7198H35.7504H35.781H35.8117H35.8423H35.873H35.9037H35.9345H35.9652H35.996H36.0267H36.0575H36.0883H36.1191H36.15H36.1808H36.2116H36.2425H36.2733H36.3042H36.335H36.3659H36.3968H36.4276H36.4585H36.4894H36.5202H36.5511H36.5819H36.6128H36.6436H36.6745H36.7053H36.7361H36.767H36.7978H36.8286H36.8594H36.8901H36.9209H36.9516H36.9824H37.0131H37.0438H37.0744H37.1051H37.1357H37.1663H37.1969H37.2275H37.258H37.2885H37.319H37.3495H37.3799H37.4103H37.4407H37.471H37.5013H37.5316H37.5619H37.5921H37.6222H37.6524H37.6825H37.7125H37.7425H37.7725H37.8025H37.8323H37.8622H37.892H37.9217H37.9515H37.9811H38.0107H38.0403H38.0698H38.0993H38.1287H38.158H38.1873H38.2166H38.2458H38.2749H38.304H38.333H38.362H38.3909H38.4197H38.4485H38.4772H38.5058H38.5344H38.5629H38.5913H38.6197H38.648H38.6762H38.7044H38.7325H38.7605H38.7884H38.8163H38.8441H38.8718H38.8994H38.927H38.9545H38.9818H39.0092H39.0364H39.0635H39.0906H39.1175H39.1444H39.1712H39.1979H39.2245H39.2511H39.2775H39.3038H39.3301H39.3562H39.3823H39.4083H39.4341H39.4599H39.4855H39.5111H39.5366H39.5619H39.5872H39.6123H39.6374H39.6623H39.6872H39.7119H39.7365H39.761H39.7854H39.8097H39.8339H39.8579H39.8819H39.9057H39.9294H39.953H39.9765H39.9998H40.023H40.0461H40.0691H40.092H40.1147H40.1374H40.1598H40.1822H40.2044H40.2265H40.2485H40.2703H40.2921H40.3136H40.3351H40.3564H40.3775H40.3986H40.4195H40.4402H40.4608H40.4813H40.5017H40.5219H40.5419H40.5618H40.5816H40.6012H40.6206H40.6399H40.6591H40.6781H40.697H40.7157H40.7343H40.7527H40.7709H40.789H40.8069H40.8247H40.8423H40.8598H40.8771H40.8942H40.9112H40.928H40.9446H40.9611H40.9774H40.9936H41.0095H41.0253H41.041H41.0564H41.0717H41.0868H41.1018H41.1165H41.1311H41.1455H41.1598H41.1738H41.1877H41.2014H41.2149H41.2282H41.2407H41.2414H41.2543H41.2671H41.2797H41.2921H41.3043H41.3163H41.3281H41.3398H41.3512H41.3625H41.3735H41.3844H41.3951H41.4055H41.4158H41.4259H41.4357H41.4454H41.4548H41.4641H41.4732H41.482H41.4907H41.4991H41.5073H41.5153H41.5232H41.5308H41.5381H41.5453H41.5523H41.559H41.5655H41.5719H41.578H41.5838H41.5895H41.5949H41.6001H41.6051H41.6099H41.6144H41.6188H41.6228H41.6267H41.6303H41.6338H41.6369H41.6399H41.6426H41.6451H41.6473H41.6493H41.6511H41.6526H41.6537H41.6539H41.6548H41.655H41.6557H41.6558H41.6563H41.6564H41.6567H41.6567H41.6568L41.6568 23.7384L41.6568 23.7378L42.1446 23.6439C41.8715 22.2251 41.2086 21.0464 40.2111 20.2232C39.2134 19.3998 37.9137 18.9592 36.4146 18.9592C33.6231 18.9592 31.399 20.8278 30.7394 23.6236ZM59.3311 27.8418C59.3311 31.4306 61.6746 35.0396 65.6156 35.0396C67.7252 35.0396 69.2731 34.1572 70.2779 32.7869C71.2684 31.4361 71.7067 29.6478 71.707 27.8419C71.707 25.9516 71.297 24.05 70.3257 22.6047C69.3384 21.1355 67.7876 20.1682 65.6156 20.1682C63.5134 20.1682 61.9217 21.1359 60.8718 22.5911C59.833 24.031 59.3311 25.9336 59.3311 27.8418Z" fill="#652C8F" stroke="black"/>
</svg>
